/* XPM */
static char *ee299cb8170b45e3c539ccb084cf3084w2HUd09H8MswRS11[] = {
/* columns rows colors chars-per-pixel */
"64 64 250 2 ",
"   c #000500",
".  c #000B01",
"X  c #080A06",
"o  c #001203",
"O  c #001904",
"+  c #03140A",
"@  c #031B0C",
"#  c #0C190D",
"$  c #0D1D12",
"%  c #081D13",
"&  c #131C15",
"*  c #13110C",
"=  c #02230F",
"-  c #01280D",
";  c #042412",
":  c #0B2313",
">  c #0B2A14",
",  c #0D2919",
"<  c #14251A",
"1  c #142A1B",
"2  c #1A2C1D",
"3  c #152319",
"4  c #0C351B",
"5  c #17321F",
"6  c #1C2C22",
"7  c #1D2621",
"8  c #1C3324",
"9  c #1A3827",
"0  c #242E25",
"q  c #232824",
"w  c #233326",
"e  c #25342A",
"r  c #2B362C",
"t  c #243B2C",
"y  c #28392B",
"u  c #2B3B32",
"i  c #343F39",
"p  c #1B472D",
"a  c #17472C",
"s  c #24432E",
"d  c #2B4434",
"f  c #2B4A35",
"g  c #2E4A3A",
"h  c #294535",
"j  c #324235",
"k  c #33453A",
"l  c #334B3C",
"z  c #39483B",
"x  c #2B543C",
"c  c #33523E",
"v  c #29623F",
"b  c #41443D",
"n  c #364D41",
"m  c #3C4D43",
"M  c #355441",
"N  c #3B5544",
"B  c #3E5B4A",
"V  c #395B46",
"C  c #2C5D41",
"Z  c #3C644C",
"A  c #356C4C",
"S  c #3B6B4C",
"D  c #346646",
"F  c #38734D",
"G  c #3E6B52",
"H  c #3D7352",
"J  c #3C7855",
"K  c #2D6243",
"L  c #434B43",
"P  c #435C4B",
"I  c #445649",
"U  c #4A5D51",
"Y  c #555C55",
"T  c #43624D",
"R  c #41694F",
"E  c #456552",
"W  c #4B6453",
"Q  c #436B53",
"!  c #4A6B56",
"~  c #4C6D5A",
"^  c #496A58",
"/  c #536C5C",
"(  c #546757",
")  c #437355",
"_  c #467559",
"`  c #4B745B",
"'  c #447C5B",
"]  c #4B7C5C",
"[  c #467856",
"{  c #52735E",
"}  c #527C5E",
"|  c #596C62",
" . c #4C7B60",
".. c #4B7861",
"X. c #537462",
"o. c #5B7464",
"O. c #547C64",
"+. c #5A7B66",
"@. c #5C7D6A",
"#. c #5A796A",
"$. c #637C6B",
"%. c #637768",
"&. c #6B7D71",
"*. c #3D8055",
"=. c #48825D",
"-. c #4C8463",
";. c #4C8966",
":. c #538465",
">. c #5B846B",
",. c #558C6C",
"<. c #5B8B6D",
"1. c #568767",
"2. c #55916B",
"3. c #5A926E",
"4. c #59996F",
"5. c #5D8A71",
"6. c #5C9473",
"7. c #5C9A74",
"8. c #5C9A78",
"9. c #4F9068",
"0. c #62846D",
"q. c #638A6E",
"w. c #648473",
"e. c #6B8474",
"r. c #638C73",
"t. c #6A8B75",
"y. c #6C8D7B",
"u. c #688B78",
"i. c #738C7B",
"p. c #718976",
"a. c #639475",
"s. c #639A75",
"d. c #65947A",
"f. c #6B947B",
"g. c #649C7B",
"h. c #6B9C7C",
"j. c #6A9575",
"k. c #73957E",
"l. c #5FA379",
"z. c #63A27B",
"x. c #69A37D",
"c. c #70A27F",
"v. c #7A8E82",
"b. c #6D9C81",
"n. c #6B9781",
"m. c #749583",
"M. c #7B9585",
"N. c #739C83",
"B. c #7A9B85",
"V. c #7C9C8A",
"C. c #729D88",
"Z. c #6CA383",
"A. c #69A984",
"S. c #73A485",
"D. c #72AA86",
"F. c #76A48B",
"G. c #7BA48B",
"H. c #74AB8A",
"J. c #7BAB8D",
"K. c #7AA387",
"L. c #75B38C",
"P. c #7AB28C",
"I. c #7CAC92",
"U. c #77A990",
"Y. c #7DB493",
"T. c #7DBB95",
"R. c #7EBA99",
"E. c #76B290",
"W. c #6FB088",
"Q. c #839C8C",
"!. c #869D90",
"~. c #82A58E",
"^. c #84A492",
"/. c #8BA495",
"(. c #83AC93",
"). c #8AAC96",
"_. c #8DAD9A",
"`. c #89AA98",
"'. c #92AC9C",
"]. c #93A598",
"[. c #83B494",
"{. c #84B499",
"}. c #8BB39B",
"|. c #83BC9A",
" X c #8BBB9D",
".X c #86B796",
"XX c #92B39D",
"oX c #91BE9F",
"OX c #85B38F",
"+X c #9AAFA3",
"@X c #8DBBA1",
"#X c #8EB5A1",
"$X c #94B5A2",
"%X c #93BCA3",
"&X c #9CBCAA",
"*X c #99BAA7",
"=X c #A3BCAC",
"-X c #A4B7AA",
";X c #A9BDB1",
":X c #B4BDB3",
">X c #83C29E",
",X c #8CC29F",
"<X c #8BC89E",
"1X c #92C29E",
"2X c #8DC3A2",
"3X c #8CC9A5",
"4X c #93C4A5",
"5X c #92CAA5",
"6X c #95C4A9",
"7X c #9BC3AC",
"8X c #94CAAA",
"9X c #9BCAAD",
"0X c #99C3A6",
"qX c #9DCDB2",
"wX c #9CC8B1",
"eX c #9CD3B3",
"rX c #94D2AC",
"tX c #A2C5AE",
"yX c #A4C5B3",
"uX c #ACC4B4",
"iX c #A3CCB4",
"pX c #AACBB5",
"aX c #ACCCBA",
"sX c #AAC8B9",
"dX c #B2C3B6",
"fX c #B3C6BA",
"gX c #BBC5BC",
"hX c #B4CBBC",
"jX c #BACBBE",
"kX c #B2C7B6",
"lX c #A3D2B5",
"zX c #A6D3B9",
"xX c #ACD3BC",
"cX c #A8D5BA",
"vX c #B2D2BD",
"bX c #B1D9BE",
"nX c #B5CDC0",
"mX c #BCCDC2",
"MX c #BEC7C2",
"NX c #ADDAC3",
"BX c #B4D4C2",
"VX c #BBD3C4",
"CX c #B3DBC4",
"ZX c #BBDAC5",
"AX c #BCD9C9",
"SX c #B7E2CA",
"DX c #C3CDC5",
"FX c #C4D3CC",
"GX c #C5D4C8",
"HX c #C2E2CD",
/* pixels */
". o o o .   .   X   X X X X       X           X                   . .   . X     .   . . . .   X   .     . . . . o . o o o O O o ",
"p.j.q.h.m.p.  FXFXFXAXmXMXFXDXFXMXmXMXFXMXDXFXgXgXDXDXMXVXVXnXAXVXnXFX6 I I 7 < 3 , : ; : < & $ < % 2 < 8 h e.e.k.k.k.B./.k.k.K.",
"f f x ] 0.%.X FXDXMXAX#XAXnXnXnXmXVX=XmXMXnXu VXnXVXz aX`.^ &X..`.w.`.    v.+X!.B.~.~.~.G.^.!.`.!.^.V.(.B.$.W . . o . o . o O o ",
"OX[.9XlX. %.  DXmX*X#XCX{.aX&XU.xX}.$X_.nXg yX_.aXg pXG.G {.@X>.*Xy.AX. . +XnXAXZXvXvXCXBXBXCXnXCXCXCXCXzXxX%X(.^.~.).).~.XX~.XX",
"lXbXI.lXo %.  GXhXm.Y.Y.Y.K L.Y.E.|.,.Y.J.I.G I.J.I.Q (.lXO.5.,.>.7XiX.   ^.VXaXoX0X0X8X0X2XiX7X%XqX9XNXCXxXCXCXbXBXZXZXGXvXHXZX",
"2XeXg.N.. e.. jXpXr.|.H.I.Y.P.T.8.T.;.-.J =.lX) ` ` lXJ.) 0X5.%X%Xt._.. . M.vX}.~.S OXF |..XK.:.@XI.I. .(.[.@X` O.%X_ %X:.oX0.~.",
"5XD.S.}.. %.. jX&X@X:.2XD..X1.h.H.D.6.S.@X X` N. X[.O.>.iX>.6.r.}.m.nX. . Q.vX}.S ,X4.c.2.4.H D.5.A b.S.6.6.A 8X6.7.R.D.8XU.s.8X",
"L.qX:.X.. i.. jXB.I.@XS.eX9XtX~.r.K.$XtXf.N.iX0Xf.B.yXn.N.yXV.wXyXsX*X  . Q.uX}.OX1.D.F 5XF 5Xs.3XL.D.z.3XY.' g.8Xs.8X3Xz.=.rX.X",
"eXq.- P . p., B.c V K V M h k I N N c g l d d t l g g h l l l g u U   .   &.nXaXG 0Xg.F D.2Xs.F D.S 1X) J.' [.x.9Xg.J.' 5XlX-.H.",
"j.} c } . p.x o o @ > + + + # . # O o . o . .     .     . .   . .   . m e   MXnXX.5.a.J.2X8XH I.1XOXh.P.J.P.OXK.S.cXK.cXcXS.CX X",
"q.c d t . B.c . o . . .           . . .   . .   .                       U   mX-Xi.7Xf.lXN.h.[.qXD.P.3.lXc.|..X .:.] ] ` ] q.1.q.",
"0.. . . o i...@.>.~ U r 7 7 q & $ @ / ( /.v.=X-X;XkXmXMX:XgXgXgXdXnXfXgX7   fXM.T o.Z Q E p E ^ ] 4 [ =.' s Q Q ` s x c V c V T ",
". 8 2 r X 0.Q Q T &.N dXnXnX;XBXhXjXhXjXuXsXtXhX_./.`._.V.'._._.`.'.sXfX+ . fX&./ $.T p s d | d h h { s h B . @ 6 8 e + 3 3 $ 3 ",
"8 y 6 # W } Q Z f W dX-X_.`.#X#XXX/.).OXXX~.}.J.(.D (._ A K.) D 9XyX^.nX    . . . o @ : 1 3 3 # , 3 3 3 6 7 e + &   .         . ",
": e 0 7 o { D R s c hX^.G E.8.J p <.p ) J.D H.H.D.A [.L.P.Y.Z.Y.Z F.(.`.. +   . . . .   .     X         X     7 7 7 7 u e r u u ",
"^ . X . . c R V c / kXE I.Z.,.R.x.>X7.>X=.|.H.F L.L.P.H ' .X' L.U.I.u.(.. g %.U W W %.&.. w L & * q       X .     + . + . + + + ",
"_.&X*XXX-X=X5 T P . aXpXk.<.6.S.D.D s.s.2.2.Y.E.D.[ P.OX>X=.R.H H...>.BX  # &     o z I P %.-XgXfXgX;X;XuX!.].)./.).^._.`.+X_.+X",
"SXxXxXCXhXvX: P W . N.xX.. Xf.S h.s.h.5XZ.a 5XJ.OX[. X[ s.4.' H.zXF.wX(.. . gXjXgXkX  d . y.hXdXnXfXaXhXyXhXpXpXpXxXlXlXCXlXCXNX",
"Y.h._ (.+.tXo T T o +.(.7Xh.7XtXf.tXZ OX_ O wXh.0Xr.0X9Xa.5XqX@XeX&XK.@.    hX/ 0.+.hX1 o pXkXhXy.O.V.O.h._ ' A .XT.Y.T.>X>X>X2X",
"2X;.2X>.0X).. T W V . tX*X) } } $.s f B.B V.w.o.o.#.} O.+.O...X.~ #.u.E .   aXm.Z u.^ 4 s $XhX;Xc u.O.N.C A H K T.3.|.;.A.;.E.A.",
"T.L.s.1Xj.pX. ! P I 2 O I P W ( j j m %     k k y r u w e u 8 e 9 +   . i   uXy.`.u.w.o E *XsXM.G.K.I.K 3X6.8.,.j.1.q.c.' =.x.x.",
"rX2.5Xs.iXR . W U W w .   .             .   .   .     .       . . + . k r U < ;X#.u.^ . . V.nXQ.u. X,.T.;.b.Z.Z.1XS 1Xj.[.4.P.OX",
"z.<X[ <. X` . { B E P E e.. @ , ; t , % & . . . .   . i m i m i j k i e Y I j .   . . o < . /.i.(.,.H A.>X9.9.2.c.3.j.P.} 2.x.x.",
"Z.Z.1.q.*X. . $.B B N B P B W ^ O.^ X.U u $ + @ + %               .         . . 6 k U I P . . N r.Z.Z.A >X8.A.Z.[ =.0Xj.=.9.x.L.",
"K.N.iXxX@.. . / N $   .     + 6 N T U $ MXMXnXnXnXhXgXgXjXgXfXMXhXhXpXhXdXgXkXkXQ.&.. o % t . . E V p @X6X6.d.6.} q.S.K.eXZ.rXA.",
"0XxX$X{ . . . P . !.nXkXnXnXfXuXo.o + + MX+X+X=XwXyXyXtX&X;X=X*X-X&X*X7X=X-X&X&XyXaX;XkXm.+.. . . .   X.`._.I.}.tXOX) Q ' Z.T.R.",
"o.o.t.. o . I . m.NXaX%XC.I.(.b.R @.. . nX-XG.d.' H ) r.U.J H.Z.Q (.u._ Z u.S ) I.G ~.hXpXiXkX:XfX  X e + $ < & 3 w d l g Q G Z ",
"e.o o . . 8 `.M.nX%Xn.U.f.Y.K h.f.VX.   MXnXX.6.3X7.>X1.R.-.A.2.a.u.<. X>.R.R...|.] p J.K.M pXkXfXgX:X&             . . . 6 % W ",
". . . ^ z !.pXaX`.U.` D O.S.K.q.0XuX    ( MXG n.8.8.3.5X<.3XF 8.0X) a.1.R.,.-.>X=.D.|.<.r.C ..V.w.~ e.mXu                       ",
"t 0.B M M.uXvX_.wXb.] h. X|.3.D.` B.: .   nX_ n.Z.z.,Xx.h.s.J g.g.A s.5X8.,.R.;.,X2.a.Q h.) >.6.<.@Xy.% ].  L MX:XnXnXnX;X  2 0 ",
"{ /.uXhXaXpXXXK.5.g.|.3.2.x.4.x.H.@XU . . nXd.6X8.l.g.h.1Xj.x.,X4Xs.5X6.D 1XZ.-.<.j.[ j.' s.8XJ 6.6.zX4 m . + nX+X*XsXNXAX=X  Q.",
"8 sXBXpX*X}.<._ h.C |.2.F F 4.<X' {.^ . t Q.zX6.3X3X=.7.j.1XS s.) _ 3.5X4 j.a. X<. Xt.9X=.-.,.H 8.2XU.n     + nXn.C.I.F.{.uX  o.",
"t jX$XU.I.] ' 2Xf.<.|.5. XA a.2X|.@Xt . N . }.B.6.Z.' g.9Xa.4XK.4X[ g.7.@XQ h.,..Xa.G a._ ) 0Xd.2Xn.d.B +   # sXV A R.-.n.).. e.",
"U 1 xXZ.,.6.6.:.<..XK.6.H.8Xf.wX^.} g . I h . vXiXqXZ.qXf.X.N.%Xd.J a.8X7.H g.@Xa.K.a. Xh.6X[ _ a.0X..E # X   gXF.|.;.2XU.^ o I ",
"#.. x @XeXg.qX7X}.}.:.qX<.g.d.G @.g . 2 N c . T $X^.(. XVX~ uXh.8Xh.8X6.9X4.8Xg.] ,Xh.g.' f._ _ 0Xn.@.h .   # fXQ  .@X8.iX+.. T ",
">.@.; _ Q ^ ~ P R ! Q Q _ Q u.s h . 2 b { t.o . . o . O 1 W y.vXG.J.[.bXk.~.}.iX1.).pX_.(.OXh.9Xn.iXE g     & kX^.6.b.8XxXh o E ",
"#.+ . . . X     .   . . . O     . . z ( / ^ N P . . . . . . O .   X     .     X     q $ | e.nX/.&X&Xw.: +   k mXm.iX(.(.vX! o t ",
"| #   . +               . .     . 5 5 d T _ o.T P ( t w d . .           X               .     + . . @ 6 i   &.U B E ^ E o.p.u d ",
"7 MXVXnXkXdXdXdX:XgXhXyXuXhXgXjXkXhXvXXXp _ y.i.i.M.B V P w 9 t 8 8 o .   .         .     .     .   .             .   .       k ",
"  nXsXnXXX].].'.].'.XXW ~ { ).~ XX} j.iX_ ] . . o M V r.w.e.t.w.w.m.u.1 .   6 X + 6 I &.#.u 9 9 y 0 e e y i     . . . . . o e w ",
". nX_.U.F.H I.Q ] a ` @X<.K d.}.a.a.0Xc.G :.. . 8 B C ; . . . . . . o @ E E U + % +   8 @ n.5.n.u.u.w.n.n.n.n.n.y.f.N.B.~.yX. m.",
". mX$XS  .E.J  ..X<.|.2.6.8X,.<.h.S S.lX:.` @   6 + @.C.n.V.y.m.m.n.n.u.w.u.5.n.M.m.V.F.`.#X#X7X&XyXwX#X&X#X*XqXzX&XiXbXCX#X. n.",
". jXXX(.E.A.R.T.=.[.:.s.H 7.8X,X5Xs.x.K.S +.o   . + _.SXsX;XfXfXwXwXwX;XwX=XhX*X=X+XmXnXfXVXVXhXaXcXnXNXnXzXNXeXzXZXxXvX}.+.. W ",
"* DX'.f.R.' R.Y.' .X:.5X6.6.<.s.A OXa.lX` ! r       /.nXCXnXBXhXBXCXNXsXnXnXaXvXsXMXAXnXjXhXmXkX7XK.#X#X*Xn.&X0X}.$XiX0Xk.^ . | ",
"7 mX*X@X .R... .Y.' |.v x.g.4Xs.s.,Xh.H.A { u X X   ].sXBX!.yX&X*X@X0Xk.4X1Xj. X&X|.K..Xh.] :.R ' OX) (.) O.G Y.R J.:.0XO.` . j ",
". BX5.O.@X8.@X@X}.[.|.2.5X3.s.j.4X2.eXZ.7.Q 0   X   %.mXBX+XE ....] =.] OXD T.P.,.H 3.W.L..XD.F z.6. XoXG.6.3X:.,X X4Xc.<.O.. j ",
". AX&XqXiXN.r.r.r.j.6.|.6.@Xh.f.h.5XA.E.9. .t   *   + nXBXwX..F.a.eX<.5X4.D.3X;.9.L.T.T.2.A.g.W.l.z.S j.K.H.g.3X3.1X4.eX<.[ . z ",
"; #X(.}.8 ; vXyXB.iXK.J.iXJ.K.pXOXD.|.,.;.O.t . *     VXCXNX{.6Xf.a.S.g.=.7.4.3Xz.A.9.>Xx.F s.s.<X4.h.8Xz.;.=.l.J H.c.,Xa.:.. j ",
"n + . . . #.W N I B | X.X.X.X.X.X.O.>.t.O.y.u o # .   pXAXxX..d.6Xd.9Xh.b.8Xz.' *.W.L.7.<X3.5XL.s.5X4.c.=.z.l.z.3Xz.2.h.q.} . z ",
"@.@.e.P . .   .   o . . + + + % : ; @ 8 t u N o # o . ].AXyXBXV.U.zXF.iX:.S.s.P.=.T.4.L.=.5Xz.g.=.x.4.c.s.5Xz.*.l.T.7.s.j.0.. f ",
"y O . .   + %   .   .             o .     .   X .   . kXuXo.$.i.u.y.f.>.xXG.lX9XA.Z.7.z.l.W.2.A.x.eXc.5XD.z.8XD.x.W.D.eXj.1.o c ",
"+ ].hX;X:X;X+X/.m   . (   .   + $ @ : 3 1 < 2 e 6 3 . / +   o . . . . o ! w.0.B.@XZ.Z.H.D.x.H.F.F.f.h.J.b.N.S.h.L.D.J.}.<.K.o f ",
". GXhXVXVXVXnXBXpX7XyXB.#.X.h . . .     .   . . . . 8 o.< k   @ , 1 1 5 . c o.W E ~ E E / E ^ E ^ T ~ ^ W ( W } ! ! X.{ y.. < h ",
". =XZXQ.^.x 7XaXBXxXxXpX_.&X7XyXuXhXsXhX!.^.+XM.V.w.n m < 9   O 8 c W 1 1 .   .     . +   .   .   . .   . .       .   . . . 8 | ",
". pXBX_.}.@X%X7XZ (.7XxXbXpXBXvXhXBXBXAXCXAXCXBXFXaXAX*X*XuXhXhX7X9 q.I . .   .   . .   X         .     .     .             m Y ",
". iXSX}.X.@XD C @XF.>.a ).` XX! $X~ $X$X~ $XX.#X}.yXpXCXAXVXBXVX}.. B @.. GXjXDXmXDXmXmXGXjXDXjXVXhXGXjXjXVXjXmXVXkXGXDXFXFX  %.",
". hXAXXX&X7X(.qXn.Y.f.J.6Xd.f.9X..:.f.zX` S.b.d.4X5.@X` }.).&Xf.@.. ; @.. =XVXVX/.^.}.XX) }.`  Xn.(.]  XK.] |.) [.h.{.Q CXCX2 o.",
". hXAXfXV.CXn.N.2XwXY.cXqX9XJ.N.xXN.@XN.6X{.NXE.zXI.lXI.lXxXiX~ #.. u U . AXV.M.iX_ 4X' 2X2X|.=.2X:.Y.Y.1.E.R.R.;.|.;.@Xx b.o X.",
". HX}.Z 5.O.>.O.O.>.5.>.} >.t.+.q.>.q.<.>.:.5.5.:.>.r.} >.O.u.` v.u   6 . VXyX&XiXK.P.7.>XA.L.>XD.2X,XH.|.>XD.H.2XH.2X XCXpX. i.",
"; aXN.o o > = 4 > ; @ O @ : : : : > > , , > - - ; > - : = O > t k m . . 3 VXaXAXxX%X8XlXeXP.L.5Xs.Z.8X<.4X2X8X6.8X7.9Xh.bXs . B.",
"I . .   . . . . . . . . . . . .   .         . . .     .           .   : U . . . M w.>.>.oX).iXCXcX6X2XcXcX0X8XeX3XNXcX@X9XO.. B.",
"p.P 2 z g 1 w 2 8 6 6 8 6 w t e r 0 r 0 r r r 0 e e r w 0 r e r y 8 t 6 < v.p.. . . . . . . . / ..Q O.` ` ~ ~ O.~ Q O.~ r.(.. ^.",
"N.(.~.Q.w.$.i.$.$.p.e.e.l z g l k m n m k m k m z m m k N n d n n g d l t V.v.V.`.d g l k d i   . . .             .   . .   . '.",
"- > > a 9 s s d t t h h g h c d g l k d n k g l l k l l g g n h g g g g h 6 , , 9 d g k j i z j z n z L L b L L b L b n I n n d "
};
